# xmcd
#
# Track frame offsets: 
#        150
#        12727
#        23943
#        35410
#        52409
#        65699
#        78815
#        93205
#        108713
#        126399
#        141268
#        158268
#        179284
#        198134
#        212679
#        228509
#        244118
#        266730
#        279185
#        297819
#        312539
#
# Disc length: 4398 seconds
#
# Revision: 0
# Processed by: cddbd v1.5.2PL0 Copyright (c) Steve Scherf et al.
# Submitted via: ExactAudioCopy v0.95b4
#
DISCID=33112c15
DTITLE=Freddy Clark and Sylvia - Till The Land and Special Delivery
DYEAR=1900
DGENRE=Bluegrass
TTITLE0=Till The Land
TTITLE1=I Still Want To Serve Him
TTITLE2=A Song Holy Angles Cannot Sing
TTITLE3=Where We'll Never Grow Old
TTITLE4=I've Never Been This Homesick Before
TTITLE5=When He Reached Down His Hand
TTITLE6=Two Winning Hands
TTITLE7=He Will Calm The Troubled Water
TTITLE8=Jesus The Master
TTITLE9=The Wonders You Perform
TTITLE10=His Hand in Mine
TTITLE11=Special Delivery
TTITLE12=It's My Desire
TTITLE13=You Can Make It
TTITLE14=It Is No Secret
TTITLE15=Mercy Rewrote My Life
TTITLE16=Mercy Throne
TTITLE17=I Could Not Make It Without Him
TTITLE18=I Will Glory In the Cross
TTITLE19=This World Is Not My Home
TTITLE20=Leavin' On My Mind
EXTD=
EXTT0=
EXTT1=
EXTT2=
EXTT3=
EXTT4=
EXTT5=
EXTT6=
EXTT7=
EXTT8=
EXTT9=
EXTT10=
EXTT11=
EXTT12=
EXTT13=
EXTT14=
EXTT15=
EXTT16=
EXTT17=
EXTT18=
EXTT19=
EXTT20=
PLAYORDER=
